# xmcd
#
# Track frame offsets: 
#        150
#        11604
#        28880
#        40210
#        52763
#        72471
#        83917
#        97151
#        107917
#        118912
#        134261
#        146144
#        164700
#        174233
#        183791
#
# Disc length: 2577 seconds
#
# Revision: 0
# Processed by: cddbd v1.5.2PL0 Copyright (c) Steve Scherf et al.
# Submitted via: ExactAudioCopy v1.3
#
DISCID=d60a0f0f
DTITLE=Bob Dylan - Travelin' Thru, 1967-1969 The Bootleg Series, Vol. 
DTITLE=15
DYEAR=2019
DGENRE=Folk/Rock
TTITLE0=Drifter's Escape [Take 1]
TTITLE1=I Dreamed I Saw St. Augustine [Take 2]
TTITLE2=All Along the Watchtower [Take 3]
TTITLE3=John Wesley Harding [Take 1]
TTITLE4=As I Went Out One Morning [Take 1]
TTITLE5=I Pity the Poor Immigrant [Take 4]
TTITLE6=I Am a Lonesome Hobo [Take 4]
TTITLE7=I Threw It All Away [Take 1]
TTITLE8=To Be Alone with You [Take 1]
TTITLE9=Lay, Lady, Lay [Take 2]
TTITLE10=One More Night [Take 2]
TTITLE11=Western Road [Take 1]
TTITLE12=Peggy Day [Take 1]
TTITLE13=Tell Me That It Isn't True [Take 2]
TTITLE14=Country Pie [Take 2]
EXTD=
EXTT0=
EXTT1=
EXTT2=
EXTT3=
EXTT4=
EXTT5=
EXTT6=
EXTT7=
EXTT8=
EXTT9=
EXTT10=
EXTT11=
EXTT12=
EXTT13=
EXTT14=
PLAYORDER=
